<svg xmlns="http://www.w3.org/2000/svg" width="128" height="128" viewBox="0 0 16 16">
  <title>comments</title>
  <g fill="#0585ed">
    <path d="M15,4h-1v6c0,.552-.448,1-1,1H6.828l-1.828,2h5l2.1,2.8c.096,.128,.246,.2,.4,.2,.053,0,.106-.008,.158-.026,.204-.068,.342-.259,.342-.474v-2.5h2c.552,0,1-.448,1-1V5c0-.552-.448-1-1-1Z" fill="#0585ed"/>
    <path d="M11,9c.552,0,1-.448,1-1V1c0-.552-.448-1-1-1H1C.448,0,0,.448,0,1v7c0,.552,.448,1,1,1H3v2.5c0,.215,.138,.406,.342,.474,.052,.018,.105,.026,.158,.026,.154,0,.304-.072,.4-.2l2.1-2.8h5Z" fill="#0585ed"/>
  </g>
</svg> 